<svg width="946" height="541" viewBox="0 0 946 541" fill="none" xmlns="http://www.w3.org/2000/svg">
<path d="M693.934 232.686L875.142 31.4339C909.071 61.9836 911.81 114.254 881.26 148.182L755.368 288.001L693.934 232.686Z" fill="white"/>
<path d="M734.045 217.148L945.86 488.26C908.868 517.161 855.45 510.603 826.548 473.61L667.064 269.479L734.045 217.148Z" fill="white"/>
<rect x="623.2" y="78.4003" width="141" height="419" fill="white"/>
<path d="M447.2 78.4004H588.2V497.4H447.2V78.4004Z" fill="white"/>
<path d="M252.2 78.4004H784.2C784.2 130.867 741.667 173.4 689.2 173.4H347.2C294.733 173.4 252.2 130.867 252.2 78.4004Z" fill="white"/>
<path d="M220.5 0C283.5 0 333 15.6008 369 46.8008C405.6 78.0007 426.6 119.4 432 171H289.8C287.4 153.6 279.6 139.8 266.4 129.601C253.8 119.401 237 114.301 216 114.301C198 114.301 184.201 117.901 174.601 125.101C165.001 131.701 160.2 141 160.2 153C160.2 167.4 167.7 178.2 182.7 185.4C198.3 192.6 222.3 199.8 254.7 207C291.9 216.6 322.201 226.201 345.601 235.801C369 244.801 389.4 259.801 406.8 280.801C424.8 301.201 434.1 328.801 434.7 363.601C434.7 393.001 426.3 419.401 409.5 442.801C393.3 465.601 369.6 483.601 338.4 496.801C307.8 510.001 272.1 516.601 231.3 516.601C187.5 516.601 148.5 509.101 114.3 494.101C80.0999 479.101 53.0998 458.7 33.2998 432.9C13.4999 406.5 2.39999 377.1 0 344.7H152.101C153.901 362.1 162 376.2 176.4 387C190.8 397.8 208.5 403.2 229.5 403.2C248.7 403.2 263.401 399.6 273.601 392.4C284.4 384.6 289.8 374.7 289.8 362.7C289.8 348.3 282.3 337.8 267.3 331.2C252.3 324 228 316.201 194.4 307.801C158.4 299.401 128.4 290.7 104.4 281.7C80.4004 272.1 59.6998 257.401 42.2998 237.601C24.8998 217.201 16.2002 189.9 16.2002 155.7C16.2002 126.9 24.0006 100.8 39.6006 77.4004C55.8005 53.4005 79.2 34.5002 109.8 20.7002C141 6.90022 177.9 2.20653e-05 220.5 0ZM268.604 97.4004C267.277 97.4004 266.2 98.4769 266.2 99.8047V103.4H275.76C276.003 103.4 276.2 103.203 276.2 102.96C276.2 99.8896 273.711 97.4006 270.641 97.4004H268.604Z" fill="white"/>
</svg>
